<svg xmlns="http://www.w3.org/2000/svg" viewBox="0 0 80 80" overflow="hidden"><path fill="#E0112B" d="M.064.229h79.223v79.706H.064V.229z"/><path fill="#fff" d="M14.96 15.51h5.226V59.2h7.724v5.42H14.96V15.51zm36.383 0H64.52v5.355h-7.984v15.772H64v5.714h-7.464V59.2h7.984v5.42H51.343V15.51zM32.454 64.62v-5.387h1.623c2.142 0 5.777-1.502 6.329-4.898.519-3.298.13-5.682-4.09-12.931l-.032-.098c-2.921-4.8-5.712-9.012-4.674-15.608a11.548 11.548 0 013.9-7.398 11.414 11.414 0 017.849-2.79h1.623v5.355h-1.623c-2.142 0-5.874 1.502-6.426 4.898-.52 3.265-.162 5.42 3.927 12.572l.13.163c3.05 4.93 5.777 9.306 4.738 15.87a11.484 11.484 0 01-3.819 7.443 11.35 11.35 0 01-7.832 2.842h-1.623"/></svg>
